# Blender v2.79 (sub 0) OBJ File: 'Player.blend'
# www.blender.org
o HairdK_Cube.006
v 1.292436 11.496733 0.888790
v 1.266864 11.206845 -0.906403
v 1.504325 10.276218 -1.080739
v 1.320544 11.673391 0.215121
v 1.642381 10.276218 1.048501
v 1.797368 10.276218 0.215121
v 1.211138 9.303223 -0.886731
v 1.637416 9.845250 0.885438
v 1.605793 9.303223 0.215121
v 0.873522 11.379738 -0.966486
v 0.873522 11.474607 1.548353
v 0.876848 11.861362 0.215121
v 1.274659 10.566636 1.661350
v 1.274659 10.276218 -1.216362
v 0.963158 9.303223 -0.984584
v 0.963158 9.303223 1.811213
v 0.160988 11.375584 1.628458
v 0.158274 10.939859 1.950430
v 0.193563 10.459517 2.029985
v 0.160988 11.444367 -1.025566
v 0.161598 11.916053 0.215121
v 0.233732 10.276218 -1.405205
v 0.217265 9.303223 -1.318349
v 0.913021 8.741140 -0.554744
v 1.211138 8.844012 0.634835
v 1.164917 8.718046 -0.023232
v 0.581065 8.528400 -0.789059
v 0.217265 8.487112 -0.958510
v -1.292436 11.496733 0.888790
v -1.266864 11.206845 -0.906403
v -1.504325 10.276218 -1.080739
v -1.320544 11.673391 0.215121
v -1.642381 10.276218 1.048501
v -1.797368 10.276218 0.215121
v -1.211138 9.303223 -0.886731
v -1.637416 9.845250 0.885438
v -1.605793 9.303223 0.215121
v -0.000000 11.185801 -1.038832
v -0.000000 11.080270 1.646445
v -0.000000 11.655255 0.215121
v -0.000000 10.766975 1.812619
v -0.000000 10.276218 -1.258909
v -0.000000 10.458066 1.938029
v -0.000000 9.303223 -1.183514
v -0.873522 11.379738 -0.966486
v -0.873522 11.474607 1.548353
v -0.876848 11.861362 0.215121
v -1.274659 10.566636 1.661350
v -1.274659 10.276218 -1.216362
v -0.963158 9.303223 -0.984584
v -0.963158 9.303223 1.811213
v -0.160988 11.375584 1.628458
v -0.158274 10.939859 1.950430
v -0.193563 10.459517 2.029985
v -0.160988 11.444367 -1.025566
v -0.161598 11.916053 0.215121
v -0.233732 10.276218 -1.405205
v -0.217265 9.303223 -1.318349
v -0.913021 8.741140 -0.554744
v -1.211138 8.844012 0.634835
v -1.164917 8.718046 -0.023232
v -0.000000 8.487112 -0.994987
v -0.581065 8.528400 -0.789059
v -0.217265 8.487112 -0.958510
v 1.254688 11.464821 0.873543
v 1.233060 11.180570 -0.877377
v 1.464484 10.275747 -1.047751
v 1.284026 11.636820 0.217273
v 1.594227 10.273363 1.029827
v 1.745756 10.273655 0.217459
v 1.174432 9.324957 -0.857474
v 1.589164 9.856268 0.870403
v 1.558701 9.324586 0.216419
v 0.860542 11.344911 -0.930509
v 0.853760 11.439024 1.516432
v 0.865607 11.810906 0.217043
v 1.240648 10.557798 1.623391
v 1.257707 10.275423 -1.167497
v 0.941192 9.322455 -0.941884
v 0.931337 9.305659 1.770505
v 0.181012 11.339757 1.596975
v 0.170688 10.923611 1.902916
v 0.194466 10.453070 1.978669
v 0.178964 11.409418 -0.991934
v 0.183852 11.869365 0.215923
v 0.240717 10.272799 -1.354065
v 0.218734 9.316330 -1.268331
v 0.877847 8.769250 -0.529284
v 1.168280 8.870819 0.623867
v 1.122176 8.746218 -0.015794
v 0.557772 8.551031 -0.748798
v 0.211548 8.506147 -0.910753
v -1.254688 11.464821 0.873543
v -1.233060 11.180570 -0.877377
v -1.464484 10.275747 -1.047751
v -1.284026 11.636820 0.217273
v -1.594227 10.273363 1.029827
v -1.745756 10.273655 0.217459
v -1.174432 9.324957 -0.857474
v -1.589164 9.856268 0.870403
v -1.558701 9.324586 0.216419
v -0.000000 11.162502 -0.992649
v -0.000000 11.045120 1.608494
v -0.000000 11.603528 0.215104
v -0.000000 10.749519 1.763926
v -0.000000 10.270944 -1.207450
v -0.000000 10.446688 1.887568
v -0.000000 9.314299 -1.132987
v -0.860542 11.344911 -0.930509
v -0.853760 11.439024 1.516432
v -0.865607 11.810906 0.217043
v -1.240648 10.557798 1.623391
v -1.257707 10.275423 -1.167497
v -0.941192 9.322455 -0.941884
v -0.931337 9.305659 1.770505
v -0.181012 11.339757 1.596975
v -0.170688 10.923611 1.902916
v -0.194466 10.453070 1.978669
v -0.178964 11.409418 -0.991934
v -0.183852 11.869365 0.215923
v -0.240717 10.272799 -1.354065
v -0.218734 9.316330 -1.268331
v -0.877847 8.769250 -0.529284
v -1.168280 8.870819 0.623867
v -1.122176 8.746218 -0.015794
v -0.000000 8.503586 -0.945953
v -0.557772 8.551031 -0.748798
v -0.211548 8.506147 -0.910753
vn 0.4882 0.2795 -0.8268
vn 0.9402 0.2924 0.1748
vn -0.8334 0.5164 0.1971
vn -0.8336 0.5165 -0.1960
vn -0.4050 0.3439 0.8471
vn -0.7883 0.2883 0.5436
vn 0.9753 -0.1920 0.1093
vn 0.9257 -0.1823 -0.3315
vn 0.9367 0.2787 -0.2118
vn 0.3476 -0.3211 -0.8809
vn 0.4069 -0.0881 -0.9092
vn 0.8739 0.3006 0.3820
vn 0.8439 -0.1983 0.4985
vn 0.4208 0.8303 -0.3655
vn 0.3777 0.8916 0.2496
vn 0.1715 0.2765 -0.9456
vn -0.5197 0.2009 -0.8304
vn -0.5262 -0.0657 -0.8478
vn 0.3215 0.2555 0.9118
vn 0.3196 0.0335 0.9470
vn 0.0706 0.9236 -0.3767
vn 0.0732 0.9578 0.2780
vn 0.7846 -0.6168 0.0630
vn 0.6900 -0.4775 -0.5440
vn 0.4268 -0.3648 -0.8275
vn 0.1614 -0.2221 -0.9616
vn 0.7158 -0.5953 -0.3651
vn -0.2738 0.3060 -0.9118
vn -0.9392 0.3205 0.1232
vn 0.8334 0.5164 0.1971
vn 0.8278 0.5255 -0.1967
vn 0.6960 0.0673 0.7149
vn 0.7099 0.4214 0.5643
vn -0.9753 -0.1920 0.1093
vn -0.9240 -0.3201 -0.2090
vn -0.9367 0.2787 -0.2118
vn -0.3476 -0.3211 -0.8809
vn -0.4069 -0.0881 -0.9092
vn -0.8739 0.3006 0.3820
vn -0.8439 -0.1983 0.4985
vn -0.4208 0.8303 -0.3655
vn -0.3777 0.8916 0.2496
vn -0.1067 0.3133 -0.9436
vn 0.5197 0.2009 -0.8304
vn 0.5262 -0.0657 -0.8478
vn -0.3215 0.2555 0.9118
vn -0.3196 0.0335 0.9470
vn -0.1135 0.9287 -0.3531
vn -0.0732 0.9578 0.2780
vn -0.8427 -0.4374 0.3139
vn -0.2945 -0.5970 -0.7463
vn -0.3750 -0.3964 -0.8380
vn 0.4938 -0.3508 -0.7957
vn -0.8172 -0.4965 -0.2927
vn -0.2635 -0.3009 0.9165
vn -0.9397 -0.3183 -0.1254
vn 0.8042 -0.5555 -0.2114
vn 0.7914 -0.5742 0.2097
vn 0.6789 -0.0831 -0.7295
vn 0.6841 -0.4430 -0.5794
vn -0.9750 0.1923 -0.1109
vn -0.9237 0.3230 0.2059
vn -0.9375 -0.2789 0.2080
vn -0.3256 0.3189 0.8901
vn -0.4107 0.0908 0.9072
vn -0.8759 -0.2993 -0.3784
vn -0.8453 0.1997 -0.4956
vn -0.4188 -0.8311 0.3659
vn -0.3717 -0.8938 -0.2509
vn -0.1142 -0.3072 0.9448
vn 0.5107 -0.2014 0.8359
vn 0.5246 0.0661 0.8488
vn -0.3246 -0.2531 -0.9113
vn -0.3185 -0.0326 -0.9474
vn -0.1197 -0.9277 0.3537
vn -0.0817 -0.9580 -0.2749
vn -0.8408 0.4385 -0.3173
vn -0.2793 0.5944 0.7541
vn -0.3805 0.3981 0.8347
vn 0.4909 0.3481 0.7986
vn -0.8161 0.4986 0.2922
vn 0.4808 -0.2795 0.8311
vn 0.9405 -0.2910 -0.1755
vn -0.8042 -0.5555 -0.2114
vn -0.8040 -0.5567 0.2087
vn -0.4074 -0.3452 -0.8455
vn -0.7670 -0.2986 -0.5679
vn 0.9750 0.1923 -0.1109
vn 0.9258 0.1821 0.3313
vn 0.9375 -0.2789 0.2080
vn 0.3256 0.3189 0.8901
vn 0.4107 0.0908 0.9072
vn 0.8759 -0.2993 -0.3784
vn 0.8453 0.1997 -0.4956
vn 0.4188 -0.8311 0.3659
vn 0.3717 -0.8938 -0.2509
vn 0.1729 -0.2738 0.9461
vn -0.5107 -0.2014 0.8359
vn -0.5246 0.0661 0.8488
vn 0.3246 -0.2531 -0.9113
vn 0.3185 -0.0326 -0.9474
vn 0.0798 -0.9234 0.3753
vn 0.0817 -0.9580 -0.2749
vn 0.7841 0.6174 -0.0637
vn 0.6947 0.4795 0.5362
vn 0.4327 0.3672 0.8233
vn 0.1627 0.2218 0.9614
vn 0.7136 0.5972 0.3663
vn -0.0513 -0.9910 0.1236
vn -0.0259 -0.8442 -0.5354
vn -0.6832 -0.5299 0.5024
vn 0.1430 -0.8251 0.5465
vn -0.5146 -0.8319 0.2076
vn -0.5157 -0.8341 0.1959
vn -0.0635 -0.9296 0.3629
vn -0.0534 -0.9466 0.3180
vn -0.3078 -0.1051 0.9456
vn 0.0709 -0.9730 0.2194
vn -0.3137 -0.9012 -0.2992
vn 0.8263 -0.5605 0.0559
vn 0.0267 -0.6892 0.7241
vn 0.5131 -0.8330 0.2069
vn 0.5557 -0.8076 0.1974
vn 0.0934 -0.8900 0.4463
vn 0.0494 -0.9298 0.3647
vn 0.3169 -0.1011 0.9430
vn 0.2738 0.3060 -0.9118
vn 0.9392 0.3205 0.1232
vn -0.8567 0.4787 0.1923
vn -0.8278 0.5255 -0.1967
vn -0.6960 0.0673 0.7149
vn -0.7099 0.4214 0.5643
vn 0.9800 -0.0802 0.1822
vn 0.9240 -0.3201 -0.2090
vn 0.9315 0.3179 -0.1768
vn 0.4836 -0.3090 -0.8189
vn 0.1714 -0.2799 -0.9446
vn 0.7671 0.4012 0.5007
vn 0.8197 -0.1361 0.5564
vn 0.3651 0.8618 -0.3523
vn 0.3628 0.8947 0.2605
vn 0.1067 0.3133 -0.9436
vn -0.3575 0.2685 -0.8945
vn -0.5294 -0.0665 -0.8458
vn 0.0078 0.5942 0.8042
vn 0.3018 0.1773 0.9367
vn 0.1135 0.9287 -0.3531
vn -0.0893 0.9303 0.3557
vn 0.8427 -0.4374 0.3139
vn 0.2945 -0.5970 -0.7463
vn 0.3750 -0.3964 -0.8380
vn -0.4938 -0.3508 -0.7957
vn 0.8172 -0.4965 -0.2927
vn -0.4882 0.2795 -0.8268
vn -0.9402 0.2924 0.1748
vn 0.8567 0.4787 0.1923
vn 0.8336 0.5165 -0.1960
vn 0.4050 0.3439 0.8471
vn 0.7883 0.2883 0.5436
vn -0.9800 -0.0802 0.1822
vn -0.9257 -0.1823 -0.3315
vn -0.9315 0.3179 -0.1768
vn -0.4836 -0.3090 -0.8189
vn -0.1714 -0.2799 -0.9446
vn -0.7671 0.4012 0.5007
vn -0.8197 -0.1361 0.5564
vn -0.3651 0.8618 -0.3523
vn -0.3628 0.8947 0.2605
vn -0.1715 0.2765 -0.9456
vn 0.3575 0.2685 -0.8945
vn 0.5294 -0.0665 -0.8458
vn -0.0078 0.5942 0.8042
vn -0.3018 0.1773 0.9367
vn -0.0706 0.9236 -0.3767
vn 0.0893 0.9303 0.3557
vn -0.7846 -0.6168 0.0630
vn -0.6900 -0.4775 -0.5440
vn -0.4268 -0.3648 -0.8275
vn -0.1614 -0.2221 -0.9616
vn -0.7158 -0.5953 -0.3651
vn -0.4808 -0.2795 0.8311
vn -0.9405 -0.2910 -0.1755
vn 0.8299 -0.5179 -0.2076
vn 0.8040 -0.5567 0.2087
vn 0.4074 -0.3452 -0.8455
vn 0.7670 -0.2986 -0.5679
vn -0.9798 0.0817 -0.1827
vn -0.9258 0.1821 0.3313
vn -0.9325 -0.3158 0.1751
vn -0.4768 0.3101 0.8225
vn -0.1739 0.2812 0.9438
vn -0.7709 -0.3987 -0.4967
vn -0.8206 0.1375 -0.5547
vn -0.3597 -0.8640 0.3524
vn -0.3590 -0.8965 -0.2598
vn -0.1729 -0.2738 0.9461
vn 0.3621 -0.2650 0.8937
vn 0.5187 0.0645 0.8525
vn -0.0091 -0.5922 -0.8058
vn -0.3021 -0.1664 -0.9386
vn -0.0798 -0.9234 0.3753
vn 0.0945 -0.9296 -0.3563
vn -0.7841 0.6174 -0.0637
vn -0.6947 0.4795 0.5362
vn -0.4327 0.3672 0.8233
vn -0.1627 0.2218 0.9614
vn -0.7136 0.5972 0.3663
vn 0.2635 -0.3009 0.9165
vn 0.9397 -0.3183 -0.1254
vn -0.8299 -0.5179 -0.2076
vn -0.7914 -0.5742 0.2097
vn -0.6789 -0.0831 -0.7295
vn -0.6841 -0.4430 -0.5794
vn 0.9798 0.0817 -0.1827
vn 0.9237 0.3230 0.2059
vn 0.9325 -0.3158 0.1751
vn 0.4768 0.3101 0.8225
vn 0.1739 0.2812 0.9438
vn 0.7709 -0.3987 -0.4967
vn 0.8206 0.1375 -0.5547
vn 0.3597 -0.8640 0.3524
vn 0.3590 -0.8965 -0.2598
vn 0.1142 -0.3072 0.9448
vn -0.3621 -0.2650 0.8937
vn -0.5187 0.0645 0.8525
vn 0.0091 -0.5922 -0.8058
vn 0.3021 -0.1664 -0.9386
vn 0.1197 -0.9277 0.3537
vn -0.0945 -0.9296 -0.3563
vn 0.8408 0.4385 -0.3173
vn 0.2793 0.5944 0.7541
vn 0.3805 0.3981 0.8347
vn -0.4909 0.3481 0.7986
vn 0.8161 0.4986 0.2922
vn -0.0709 -0.9730 0.2194
vn 0.3137 -0.9012 -0.2992
vn -0.8263 -0.5605 0.0559
vn -0.0267 -0.6892 0.7241
vn -0.5131 -0.8330 0.2069
vn -0.5557 -0.8076 0.1974
vn -0.0934 -0.8900 0.4463
vn -0.0494 -0.9298 0.3647
vn -0.3169 -0.1011 0.9430
vn 0.0513 -0.9910 0.1236
vn 0.0259 -0.8442 -0.5354
vn 0.6832 -0.5299 0.5024
vn -0.1430 -0.8251 0.5465
vn 0.5146 -0.8319 0.2076
vn 0.5157 -0.8341 0.1959
vn 0.0635 -0.9296 0.3629
vn 0.0534 -0.9466 0.3180
vn 0.3078 -0.1051 0.9456
s off
f 14//1 2//1 3//1
f 6//2 1//2 5//2
f 40//3 17//3 21//3
f 20//4 40//4 21//4
f 19//5 41//5 43//5
f 18//6 39//6 41//6
f 6//7 8//7 9//7
f 7//8 6//8 9//8
f 2//9 6//9 3//9
f 14//10 7//10 15//10
f 22//11 15//11 23//11
f 1//12 13//12 5//12
f 5//13 16//13 8//13
f 10//14 4//14 2//14
f 12//15 1//15 4//15
f 22//16 10//16 14//16
f 38//17 22//17 42//17
f 42//18 23//18 44//18
f 11//19 18//19 13//19
f 13//20 19//20 16//20
f 10//21 21//21 12//21
f 21//22 11//22 12//22
f 9//23 25//23 26//23
f 15//24 24//24 27//24
f 23//25 27//25 28//25
f 44//26 28//26 62//26
f 7//27 26//27 24//27
f 49//28 30//28 45//28
f 34//29 29//29 32//29
f 52//30 40//30 56//30
f 55//31 40//31 38//31
f 54//32 41//32 53//32
f 53//33 39//33 52//33
f 36//34 34//34 37//34
f 35//35 34//35 31//35
f 34//36 30//36 31//36
f 35//37 49//37 50//37
f 50//38 57//38 58//38
f 48//39 29//39 33//39
f 51//40 33//40 36//40
f 32//41 45//41 30//41
f 29//42 47//42 32//42
f 57//43 45//43 55//43
f 57//44 38//44 42//44
f 58//45 42//45 44//45
f 53//46 46//46 48//46
f 54//47 48//47 51//47
f 45//48 56//48 55//48
f 46//49 56//49 47//49
f 37//50 60//50 36//50
f 50//51 59//51 35//51
f 58//52 63//52 50//52
f 44//53 64//53 58//53
f 35//54 61//54 37//54
f 78//55 66//55 74//55
f 70//56 65//56 68//56
f 81//57 104//57 85//57
f 84//58 104//58 102//58
f 83//59 105//59 82//59
f 82//60 103//60 81//60
f 72//61 70//61 73//61
f 71//62 70//62 67//62
f 70//63 66//63 67//63
f 71//64 78//64 79//64
f 79//65 86//65 87//65
f 77//66 65//66 69//66
f 80//67 69//67 72//67
f 68//68 74//68 66//68
f 65//69 76//69 68//69
f 86//70 74//70 84//70
f 86//71 102//71 106//71
f 87//72 106//72 108//72
f 82//73 75//73 77//73
f 83//74 77//74 80//74
f 74//75 85//75 84//75
f 75//76 85//76 76//76
f 73//77 89//77 72//77
f 79//78 88//78 71//78
f 87//79 91//79 79//79
f 108//80 92//80 87//80
f 71//81 90//81 73//81
f 113//82 94//82 95//82
f 98//83 93//83 97//83
f 104//84 116//84 120//84
f 119//85 104//85 120//85
f 118//86 105//86 107//86
f 117//87 103//87 105//87
f 98//88 100//88 101//88
f 99//89 98//89 101//89
f 94//90 98//90 95//90
f 113//91 99//91 114//91
f 121//92 114//92 122//92
f 93//93 112//93 97//93
f 97//94 115//94 100//94
f 109//95 96//95 94//95
f 111//96 93//96 96//96
f 121//97 109//97 113//97
f 102//98 121//98 106//98
f 106//99 122//99 108//99
f 110//100 117//100 112//100
f 112//101 118//101 115//101
f 109//102 120//102 111//102
f 120//103 110//103 111//103
f 101//104 124//104 125//104
f 114//105 123//105 127//105
f 122//106 127//106 128//106
f 108//107 128//107 126//107
f 99//108 125//108 123//108
f 43//109 83//109 19//109
f 8//110 80//110 72//110
f 16//111 83//111 80//111
f 24//112 91//112 27//112
f 24//113 90//113 88//113
f 25//114 90//114 26//114
f 27//115 92//115 28//115
f 28//116 126//116 62//116
f 25//117 72//117 89//117
f 43//118 118//118 107//118
f 36//119 115//119 51//119
f 51//120 118//120 54//120
f 59//121 127//121 123//121
f 59//122 125//122 61//122
f 60//123 125//123 124//123
f 63//124 128//124 127//124
f 64//125 126//125 128//125
f 60//126 100//126 36//126
f 14//127 10//127 2//127
f 6//128 4//128 1//128
f 40//129 39//129 17//129
f 20//130 38//130 40//130
f 19//131 18//131 41//131
f 18//132 17//132 39//132
f 6//133 5//133 8//133
f 7//134 3//134 6//134
f 2//135 4//135 6//135
f 14//136 3//136 7//136
f 22//137 14//137 15//137
f 1//138 11//138 13//138
f 5//139 13//139 16//139
f 10//140 12//140 4//140
f 12//141 11//141 1//141
f 22//142 20//142 10//142
f 38//143 20//143 22//143
f 42//144 22//144 23//144
f 11//145 17//145 18//145
f 13//146 18//146 19//146
f 10//147 20//147 21//147
f 21//148 17//148 11//148
f 9//149 8//149 25//149
f 15//150 7//150 24//150
f 23//151 15//151 27//151
f 44//152 23//152 28//152
f 7//153 9//153 26//153
f 49//154 31//154 30//154
f 34//155 33//155 29//155
f 52//156 39//156 40//156
f 55//157 56//157 40//157
f 54//158 43//158 41//158
f 53//159 41//159 39//159
f 36//160 33//160 34//160
f 35//161 37//161 34//161
f 34//162 32//162 30//162
f 35//163 31//163 49//163
f 50//164 49//164 57//164
f 48//165 46//165 29//165
f 51//166 48//166 33//166
f 32//167 47//167 45//167
f 29//168 46//168 47//168
f 57//169 49//169 45//169
f 57//170 55//170 38//170
f 58//171 57//171 42//171
f 53//172 52//172 46//172
f 54//173 53//173 48//173
f 45//174 47//174 56//174
f 46//175 52//175 56//175
f 37//176 61//176 60//176
f 50//177 63//177 59//177
f 58//178 64//178 63//178
f 44//179 62//179 64//179
f 35//180 59//180 61//180
f 78//181 67//181 66//181
f 70//182 69//182 65//182
f 81//183 103//183 104//183
f 84//184 85//184 104//184
f 83//185 107//185 105//185
f 82//186 105//186 103//186
f 72//187 69//187 70//187
f 71//188 73//188 70//188
f 70//189 68//189 66//189
f 71//190 67//190 78//190
f 79//191 78//191 86//191
f 77//192 75//192 65//192
f 80//193 77//193 69//193
f 68//194 76//194 74//194
f 65//195 75//195 76//195
f 86//196 78//196 74//196
f 86//197 84//197 102//197
f 87//198 86//198 106//198
f 82//199 81//199 75//199
f 83//200 82//200 77//200
f 74//201 76//201 85//201
f 75//202 81//202 85//202
f 73//203 90//203 89//203
f 79//204 91//204 88//204
f 87//205 92//205 91//205
f 108//206 126//206 92//206
f 71//207 88//207 90//207
f 113//208 109//208 94//208
f 98//209 96//209 93//209
f 104//210 103//210 116//210
f 119//211 102//211 104//211
f 118//212 117//212 105//212
f 117//213 116//213 103//213
f 98//214 97//214 100//214
f 99//215 95//215 98//215
f 94//216 96//216 98//216
f 113//217 95//217 99//217
f 121//218 113//218 114//218
f 93//219 110//219 112//219
f 97//220 112//220 115//220
f 109//221 111//221 96//221
f 111//222 110//222 93//222
f 121//223 119//223 109//223
f 102//224 119//224 121//224
f 106//225 121//225 122//225
f 110//226 116//226 117//226
f 112//227 117//227 118//227
f 109//228 119//228 120//228
f 120//229 116//229 110//229
f 101//230 100//230 124//230
f 114//231 99//231 123//231
f 122//232 114//232 127//232
f 108//233 122//233 128//233
f 99//234 101//234 125//234
f 43//235 107//235 83//235
f 8//236 16//236 80//236
f 16//237 19//237 83//237
f 24//238 88//238 91//238
f 24//239 26//239 90//239
f 25//240 89//240 90//240
f 27//241 91//241 92//241
f 28//242 92//242 126//242
f 25//243 8//243 72//243
f 43//244 54//244 118//244
f 36//245 100//245 115//245
f 51//246 115//246 118//246
f 59//247 63//247 127//247
f 59//248 123//248 125//248
f 60//249 61//249 125//249
f 63//250 64//250 128//250
f 64//251 62//251 126//251
f 60//252 124//252 100//252
